<?xml version="1.0" standalone="no"?>
<!DOCTYPE svg PUBLIC "-//W3C//DTD SVG 20010904//EN"
 "http://www.w3.org/TR/2001/REC-SVG-20010904/DTD/svg10.dtd">
<svg version="1.0" xmlns="http://www.w3.org/2000/svg"
 width="196.000000pt" height="51.000000pt" viewBox="0 0 196.000000 51.000000"
 preserveAspectRatio="xMidYMid meet">

<g transform="translate(0.000000,51.000000) scale(0.100000,-0.100000)"
fill="#000000" stroke="none">
<path d="M1898 484 c-12 -12 -20 -14 -36 -5 -58 31 -147 -2 -177 -66 -55 -115
73 -237 184 -175 59 32 89 120 60 173 -8 16 -7 25 7 40 10 11 12 19 6 19 -7 0
-12 7 -12 15 0 19 -12 19 -32 -1z m22 -23 c0 -12 -20 -25 -27 -18 -7 7 6 27
18 27 5 0 9 -4 9 -9z m-79 -11 c31 -17 22 -30 -23 -30 -50 0 -78 -22 -78 -62
0 -57 60 -86 108 -52 19 13 23 24 20 57 -3 48 17 62 32 21 13 -34 -3 -88 -33
-109 -12 -8 -40 -15 -63 -15 -56 0 -94 37 -94 92 0 51 14 76 53 93 39 17 53
18 78 5z m-36 -81 c-6 -18 -4 -20 14 -14 24 7 28 -7 6 -25 -30 -25 -70 15 -45
45 18 22 32 18 25 -6z"/>
<path d="M0 280 l0 -190 190 0 190 0 0 190 0 190 -190 0 -190 0 0 -190z m100
105 c17 -20 5 -45 -20 -45 -11 0 -23 7 -26 15 -6 15 11 45 26 45 4 0 13 -7 20
-15z m10 -160 l0 -95 -30 0 -30 0 0 95 0 95 30 0 30 0 0 -95z m90 79 c0 -14 2
-14 22 0 61 43 101 5 106 -100 l4 -74 -30 0 -31 0 -3 68 c-3 64 -4 67 -28 67
-24 0 -25 -3 -28 -67 -3 -68 -3 -68 -32 -68 l-30 0 0 95 c0 95 0 95 25 95 16
0 25 -6 25 -16z"/>
<path d="M1290 260 l0 -170 35 0 35 0 0 170 0 170 -35 0 -35 0 0 -170z"/>
<path d="M527 413 c-2 -4 -23 -72 -46 -151 -23 -79 -44 -149 -48 -157 -4 -12
4 -15 34 -15 37 0 40 2 49 38 9 36 11 37 56 40 l47 3 12 -40 c11 -39 14 -41
51 -41 21 0 38 1 38 3 0 1 -22 74 -49 162 l-48 160 -46 3 c-25 2 -47 -1 -50
-5z m50 -191 c-38 -4 -40 -1 -29 44 6 22 13 53 17 69 7 27 9 24 24 -40 l16
-70 -28 -3z"/>
<path d="M760 165 l0 -165 35 0 35 0 0 55 c0 52 1 55 19 45 57 -30 128 15 138
87 7 56 -2 90 -34 119 -30 28 -62 30 -103 9 -27 -14 -30 -14 -30 0 0 10 -10
15 -30 15 l-30 0 0 -165z m150 86 c16 -31 12 -69 -11 -92 -18 -18 -23 -19 -42
-6 -25 16 -35 80 -16 103 17 20 57 17 69 -5z"/>
<path d="M1020 165 l0 -165 35 0 35 0 0 55 c0 52 1 55 19 45 57 -30 128 15
138 87 7 56 -2 90 -34 119 -30 28 -62 30 -103 9 -27 -14 -30 -14 -30 0 0 10
-10 15 -30 15 l-30 0 0 -165z m150 86 c16 -31 12 -69 -11 -92 -18 -18 -23 -19
-42 -6 -25 16 -35 80 -16 103 17 20 57 17 69 -5z"/>
<path d="M1474 321 c-31 -13 -61 -55 -68 -95 -14 -76 41 -136 126 -136 57 0
78 10 78 36 0 22 -3 23 -48 17 -38 -4 -52 -1 -72 16 l-25 20 78 1 c57 0 79 4
83 14 8 22 -14 91 -35 110 -23 21 -87 30 -117 17z m74 -53 c25 -25 13 -38 -33
-38 -49 0 -50 1 -35 31 12 21 50 25 68 7z"/>
</g>
</svg>
